PathFileType	4	(x/y/z)	S10_M20_T60
DataRate	CameraRate	NumFrames	NumMarkers	Units	OrigDataRate	OrigDataStartFrame	OrigNumFrames
240	240	9	51	mm	240	1	517
Frame#	Time	Sternum			R.Acromium			L.Acromium			Top.Head			R.ASIS			L.ASIS			R.PSIS			L.PSIS			R.Great.Tro			L.Great.Tro			R.Iliac.Crest			L.Iliac.Crest			V.Sacral			R.Thigh.Upper.Post			R.Thigh.Lower.Ant			R.Thigh.Lower.Post			R.Thigh.Upper.Ant			R.Knee.Lat			R.Knee.Med			R.Shank.Upper.Post			R.Shank.Lower.Ant			R.Shank.Lower.Post			R.Shank.Upper.Ant			R.Ankle.Lat			R.Ankle.Med			R.Heel.Upper			R.Heel.Med			R.Heel.Lat			R.Toe.Lat			R.Toe.Med			R.Toe.Tip			L.Thigh.Upper.Post			L.Thigh.Lower.Ant			L.Thigh.Lower.Post			L.Thigh.Upper.Ant			L.Knee.Lat			L.Knee.Med			L.Shank.Upper.Post			L.Shank.Lower.Ant			L.Shank.Lower.Post			L.Shank.Upper.Ant			L.Ankle.Lat			L.Ankle.Med			L.Heel.Upper			L.Heel.Med			L.Heel.Lat			L.Toe.Lat			L.Toe.Med			L.Toe.Tip			Cervical.Spine			Back			
		X1	Y1	Z1	X2	Y2	Z2	X3	Y3	Z3	X4	Y4	Z4	X5	Y5	Z5	X6	Y6	Z6	X7	Y7	Z7	X8	Y8	Z8	X9	Y9	Z9	X10	Y10	Z10	X11	Y11	Z11	X12	Y12	Z12	X13	Y13	Z13	X14	Y14	Z14	X15	Y15	Z15	X16	Y16	Z16	X17	Y17	Z17	X18	Y18	Z18	X19	Y19	Z19	X20	Y20	Z20	X21	Y21	Z21	X22	Y22	Z22	X23	Y23	Z23	X24	Y24	Z24	X25	Y25	Z25	X26	Y26	Z26	X27	Y27	Z27	X28	Y28	Z28	X29	Y29	Z29	X30	Y30	Z30	X31	Y31	Z31	X32	Y32	Z32	X33	Y33	Z33	X34	Y34	Z34	X35	Y35	Z35	X36	Y36	Z36	X37	Y37	Z37	X38	Y38	Z38	X39	Y39	Z39	X40	Y40	Z40	X41	Y41	Z41	X42	Y42	Z42	X43	Y43	Z43	X44	Y44	Z44	X45	Y45	Z45	X46	Y46	Z46	X47	Y47	Z47	X48	Y48	Z48	X49	Y49	Z49	X50	Y50	Z50	X51	Y51	Z51	

1	0	-715.45	1236.2	335.81	-809.26	1399	492.42	-862.2	1418	189.42	-873.43	1709.4	360.45	-782.41	962.15	454.81	-767.84	983.22	225.32	-977.67	994.42	356.06	-968.19	1000.8	275.95	-876.59	896.59	522.9	-827.1	922.7	163.22	-874.96	1049.4	495.27	-834.21	1059.9	196.04	-996.48	964.47	318.55	-937	698.21	514.76	-913.49	605.92	472.67	-977.19	620.35	502.13	-869.73	686.1	486.13	-1035.8	505.88	459.22	-1035.6	514.6	331.03	-1189.7	324.64	453.18	-1154.5	243.07	438.43	-1217.5	256.74	446.14	-1119.4	311.3	444.68	-1242.7	148.23	423.11	-1232	158.41	344.77	-1322.5	116.25	380.18	-1320.4	88.559	351.59	-1324	91.948	412.98	-1158.7	40.008	452.19	-1131	42.776	342.11	-1071.3	44.772	382.12	-763.89	646.99	161.85	-664.07	602.22	184.39	-726.39	560.67	183.27	-692.85	685.53	162.2	-656.01	501.85	192.78	-645.25	500.79	323.84	-616.78	282.39	195.08	-513.1	238.78	203.57	-576.41	215.52	203.86	NaN	NaN	NaN	-484.84	119.62	214.73	-476.87	139.49	298.3	-525.4	57.145	260.87	-495.25	37.195	294.88	-501.54	34.929	230.49	-347.64	119.45	189	-328.71	144.15	294.69	-293.14	184.46	245.84	-909.54	1461.5	364.29	-1002.7	1255.9	356.09
2	0.0041667	-709.94	1235.7	335.06	-803.8	1398.6	491.59	-856.81	1417.1	188.59	-868.66	1708.6	359.65	-776.71	961.41	454.38	-762.23	982.79	224.91	-971.91	993.75	355.59	-962.47	1000.2	275.46	-871.08	895.77	522.34	-821.17	922.44	162.73	-869.24	1048.7	494.85	-828.61	1059.4	195.54	-990.72	963.8	318.06	-932.07	697.72	514.12	-908.71	605.32	472.42	-972.45	619.93	501.55	-864.75	685.38	485.89	-1031.3	505.58	458.75	-1030.7	514.09	330.62	-1186.6	325.59	452.93	-1152	243.7	438.38	-1214.9	257.91	445.98	-1116.4	311.64	444.56	-1241.1	149.64	423.16	-1230.3	159.63	344.82	-1321.1	118.48	380.09	-1319.3	90.801	351.53	-1323.4	94.264	412.99	-1158.5	40.167	452.19	-1130.6	42.693	342.24	-1071.1	44.677	382.15	-757.68	646.73	161.88	-657.88	602	184.78	-720.22	560.46	183.49	-686.64	685.29	162.4	-650	501.58	193.26	-639.69	500.59	324.18	-612.52	281.85	194.91	-509.67	237.33	204.17	-572.92	214.65	203.82	NaN	NaN	NaN	-482.37	118.4	214.75	-474.45	137.64	298.54	-523.67	57.294	261.03	-494.16	36.721	294.91	-500.54	34.759	230.62	-345.5	116.14	188.98	-325.99	140.41	294.66	-289.87	180.12	245.77	-904.26	1460.8	363.41	-997.17	1255.1	355.66
3	0.0083333	-704.18	1235.2	334.28	-798.1	1398.2	490.72	-851.17	1416.2	187.71	-863.69	1707.9	358.82	-770.75	960.64	453.92	-756.36	982.36	224.49	-965.9	993.06	355.09	-956.49	999.51	274.94	-865.32	894.91	521.76	-814.98	922.19	162.21	-863.26	1047.9	494.4	-822.75	1058.9	195.02	-984.7	963.12	317.53	-926.89	697.22	513.45	-903.7	604.7	472.16	-967.48	619.5	500.95	-859.53	684.63	485.63	-1026.6	505.26	458.27	-1025.6	513.56	330.18	-1183.2	326.58	452.69	-1149.5	244.36	438.33	-1212.2	259.15	445.83	-1113.2	312	444.45	-1239.4	151.12	423.22	-1228.6	160.91	344.88	-1319.5	120.85	380.01	-1318	93.172	351.48	-1322.6	96.687	412.99	-1158.2	40.331	452.19	-1130.2	42.604	342.36	-1071	44.582	382.18	-751.23	646.48	161.9	-651.47	601.78	185.19	-713.83	560.27	183.71	-680.19	685.05	162.62	-643.78	501.33	193.73	-633.96	500.39	324.51	-608.06	281.33	194.76	-506.04	235.88	204.77	-569.23	213.79	203.78	NaN	NaN	NaN	-479.79	117.17	214.76	-471.86	135.78	298.81	-521.88	57.517	261.19	-493.02	36.285	294.94	-499.51	34.638	230.75	-343.29	112.68	188.96	-323.15	136.51	294.62	-286.45	175.55	245.69	-898.74	1460.1	362.47	-991.43	1254.2	355.2
4	0.0125	-698.19	1234.7	333.47	-792.21	1397.8	489.82	-845.32	1415.3	186.8	-858.54	1707.1	357.97	-764.56	959.87	453.45	-750.27	981.94	224.05	-959.66	992.35	354.57	-950.29	998.87	274.39	-859.33	894.04	521.16	-808.55	921.95	161.67	-857.05	1047.1	493.94	-816.68	1058.3	194.47	-978.45	962.42	316.97	-921.5	696.7	512.76	-898.47	604.06	471.89	-962.28	619.04	500.33	-854.09	683.86	485.36	-1021.6	504.93	457.77	-1020.3	513	329.73	-1179.7	327.62	452.45	-1146.8	245.06	438.27	-1209.3	260.44	445.67	-1109.9	312.39	444.34	-1237.5	152.67	423.29	-1226.7	162.25	344.96	-1317.9	123.33	379.94	-1316.7	95.666	351.43	-1321.7	99.203	412.98	-1157.8	40.501	452.19	-1129.8	42.51	342.49	-1070.9	44.487	382.19	-744.58	646.25	161.91	-644.87	601.57	185.59	-707.25	560.08	183.91	-673.53	684.83	162.84	-637.38	501.09	194.18	-628.09	500.18	324.83	-603.43	280.84	194.62	-502.24	234.45	205.36	-565.37	212.96	203.75	NaN	NaN	NaN	-477.09	115.96	214.76	-469.13	133.93	299.09	-520.03	57.827	261.33	-491.84	35.901	294.97	-498.43	34.581	230.87	-341	109.09	188.93	-320.23	132.46	294.57	-282.9	170.77	245.6	-893.03	1459.3	361.49	-985.47	1253.4	354.71
5	0.016667	-692.02	1234.2	332.64	-786.15	1397.4	488.89	-839.28	1414.4	185.86	-853.26	1706.4	357.09	-758.18	959.08	452.97	-743.98	981.52	223.6	-953.22	991.64	354.03	-943.91	998.23	273.83	-853.14	893.14	520.54	-801.91	921.74	161.1	-850.65	1046.3	493.46	-810.41	1057.8	193.91	-972.02	961.73	316.39	-915.92	696.17	512.05	-893.03	603.4	471.61	-956.89	618.58	499.69	-848.45	683.08	485.07	-1016.4	504.58	457.27	-1014.7	512.43	329.27	-1176	328.7	452.22	-1143.9	245.79	438.21	-1206.2	261.79	445.53	-1106.4	312.79	444.24	-1235.6	154.29	423.37	-1224.7	163.64	345.06	-1316.1	125.91	379.87	-1315.3	98.279	351.38	-1320.6	101.8	412.97	-1157.5	40.675	452.19	-1129.4	42.412	342.62	-1070.8	44.394	382.2	-737.78	646.05	161.91	-638.13	601.36	186.01	-700.53	559.92	184.1	-666.71	684.63	163.07	-630.84	500.87	194.6	-622.14	499.97	325.14	-598.65	280.38	194.51	-498.27	233.05	205.92	-561.35	212.16	203.71	-535.11	298.36	196.81	-474.3	114.79	214.74	-466.25	132.11	299.38	-518.13	58.233	261.47	-490.63	35.582	295.01	-497.33	34.595	231	-338.67	105.4	188.89	-317.24	128.3	294.5	-279.25	165.82	245.48	-887.15	1458.6	360.48	-979.33	1252.5	354.2
6	0.020833	-685.68	1233.7	331.79	-779.95	1397	487.93	-833.09	1413.4	184.89	-847.85	1705.6	356.2	-751.63	958.3	452.48	-737.53	981.12	223.13	-946.63	990.93	353.47	-937.36	997.61	273.26	-846.79	892.24	519.92	-795.11	921.55	160.52	-844.09	1045.5	492.97	-803.98	1057.3	193.34	-965.42	961.03	315.78	-910.15	695.64	511.32	-887.42	602.73	471.32	-951.31	618.1	499.03	-842.63	682.3	484.77	-1011.1	504.21	456.76	-1009	511.83	328.8	-1172.2	329.82	451.99	-1141	246.55	438.14	-1203.1	263.19	445.4	-1102.7	313.21	444.15	-1233.6	155.96	423.46	-1222.6	165.08	345.17	-1314.1	128.61	379.82	-1313.7	101.01	351.33	-1319.4	104.48	412.95	-1157.1	40.856	452.2	-1129	42.311	342.75	-1070.7	44.302	382.2	-730.85	645.89	161.89	-631.28	601.18	186.41	-693.72	559.79	184.27	-659.77	684.46	163.31	-624.2	500.68	194.99	-616.13	499.76	325.43	-593.75	279.97	194.43	-494.15	231.71	206.46	-557.19	211.42	203.68	-531.05	297.51	197.63	-471.44	113.66	214.7	-463.25	130.35	299.68	-516.19	58.738	261.59	-489.4	35.339	295.05	-496.2	34.689	231.12	-336.31	101.62	188.86	-314.21	124.05	294.42	-275.52	160.7	245.34	-881.14	1457.8	359.42	-973.03	1251.6	353.66
7	0.025	-679.2	1233.2	330.92	-773.65	1396.6	486.95	-826.78	1412.5	183.9	-842.36	1704.9	355.3	-744.95	957.52	451.98	-730.94	980.75	222.64	-939.91	990.23	352.9	-930.69	997.01	272.66	-840.3	891.33	519.29	-788.17	921.39	159.92	-837.38	1044.6	492.46	-797.43	1056.8	192.76	-958.68	960.35	315.16	-904.23	695.1	510.57	-881.63	602.05	471.02	-945.57	617.62	498.37	-836.65	681.51	484.45	-1005.5	503.83	456.26	-1003.1	511.21	328.32	-1168.2	330.98	451.78	-1137.9	247.34	438.07	-1199.7	264.63	445.28	-1098.9	313.65	444.07	-1231.4	157.68	423.57	-1220.4	166.56	345.3	-1312.1	131.4	379.77	-1312.1	103.84	351.29	-1318	107.24	412.92	-1156.7	41.042	452.2	-1128.6	42.208	342.88	-1070.5	44.212	382.19	-723.84	645.78	161.85	-624.36	601.02	186.81	-686.83	559.7	184.41	-652.74	684.32	163.55	-617.48	500.53	195.34	-610.11	499.57	325.69	-588.76	279.63	194.37	-489.91	230.43	206.95	-552.91	210.74	203.65	-526.74	296.69	198.41	-468.52	112.58	214.64	-460.15	128.65	299.98	-514.24	59.34	261.7	-488.15	35.178	295.08	-495.07	34.863	231.24	-333.94	97.785	188.82	-311.17	119.73	294.33	-271.75	155.46	245.19	-875.02	1457.1	358.34	-966.6	1250.8	353.1
8	0.029167	-672.61	1232.8	330.03	-767.26	1396.2	485.95	-820.37	1411.6	182.89	-836.8	1704.2	354.38	-738.15	956.76	451.48	-724.24	980.4	222.15	-933.08	989.53	352.31	-923.92	996.45	272.06	-833.68	890.42	518.65	-781.12	921.29	159.3	-830.57	1043.9	491.94	-790.76	1056.3	192.18	-951.84	959.69	314.51	-898.16	694.55	509.82	-875.68	601.37	470.7	-939.66	617.12	497.69	-830.52	680.72	484.12	-999.83	503.43	455.75	-997	510.57	327.83	-1164.1	332.16	451.58	-1134.6	248.14	438	-1196.3	266.11	445.18	-1094.9	314.1	444	-1229.2	159.46	423.69	-1218	168.08	345.45	-1309.9	134.3	379.74	-1310.3	106.79	351.26	-1316.4	110.07	412.9	-1156.3	41.235	452.21	-1128.2	42.107	343.01	-1070.4	44.124	382.17	-716.76	645.73	161.79	-617.39	600.9	187.19	-679.89	559.65	184.52	-645.65	684.24	163.78	-610.72	500.42	195.64	-604.09	499.41	325.92	-583.68	279.35	194.33	-485.56	229.22	207.41	-548.54	210.15	203.62	-522.23	295.92	199.14	-465.57	111.56	214.57	-456.97	127.03	300.28	-512.29	60.034	261.79	-486.9	35.102	295.12	-493.92	35.114	231.35	-331.58	93.919	188.78	-308.14	115.38	294.22	-267.96	150.12	245.02	-868.82	1456.4	357.23	-960.07	1249.9	352.53
9	0.033333	-665.91	1232.4	329.12	-760.81	1395.8	484.94	-813.88	1410.6	181.86	-831.19	1703.5	353.46	-731.26	956.01	450.97	-717.45	980.1	221.64	-926.17	988.86	351.72	-917.07	995.92	271.46	-826.96	889.51	518.01	-773.98	921.23	158.67	-823.66	1043.1	491.42	-784.02	1055.9	191.59	-944.91	959.06	313.86	-891.95	694.01	509.06	-869.58	600.68	470.38	-933.61	616.61	497.01	-824.25	679.94	483.77	-993.95	503	455.26	-990.78	509.91	327.34	-1159.8	333.37	451.4	-1131.3	248.97	437.92	-1192.7	267.64	445.1	-1090.9	314.57	443.94	-1226.8	161.27	423.83	-1215.6	169.64	345.62	-1307.6	137.28	379.73	-1308.5	109.84	351.23	-1314.6	112.98	412.87	-1155.9	41.437	452.22	-1127.7	42.008	343.13	-1070.3	44.037	382.14	-709.63	645.74	161.7	-610.39	600.82	187.54	-672.93	559.66	184.6	-638.52	684.21	164.02	-603.92	500.37	195.91	-598.09	499.27	326.12	-578.55	279.15	194.32	-481.13	228.1	207.82	-544.09	209.63	203.58	-517.52	295.2	199.81	-462.61	110.61	214.47	-453.74	125.5	300.57	-510.35	60.809	261.86	-485.65	35.11	295.15	-492.78	35.436	231.44	-329.25	90.05	188.73	-305.14	111.01	294.11	-264.2	144.72	244.83	-862.56	1455.7	356.1	-953.45	1249.1	351.93
